# xmcd
#
# Track frame offsets:
# 182
# 19625
# 34425
# 51100
# 65007
# 75505
# 91247
# 106102
# 121192
# 134492
# 154175
# 169477
# 184305
# 200915
# 214055
# 223777
# 237070
# 249290
# 260490
# 273267
# 290170
# 303645
# 315882
# 329210
#
# Disc length: 4562 seconds
#
#
# Revision: 0
# Processed by: cddbd v1.5.1PL2 Copyright (c) Steve Scherf et al.
# Submitted via: FreeRIP 2.945 
#
DISCID=6c11d018
DTITLE=TIAO C. E PARDINHO D. DUPLA - Tião Carreiro e Pardinho Dose Dupla Vol. 2
DYEAR=1995
DGENRE=Country
TTITLE0=Golpe de Mestre
TTITLE1=O Pulo do Gato
TTITLE2=Rio De Lágrimas
TTITLE3=Amargurado
TTITLE4=Saudade
TTITLE5=Cabelo Loiro
TTITLE6=Pai João
TTITLE7=A Vaca Já Foi P'ro Brejo
TTITLE8=Pagode Em Brasília
TTITLE9=Hoje Eu Não Posso Ir
TTITLE10=Arapó
TTITLE11=Carteiro
TTITLE12=A Mão Do Tempo
TTITLE13=Veneno Lento
TTITLE14=Fonte Dos Prazeres
TTITLE15=Nossas Vidas
TTITLE16=Romance Proibido
TTITLE17=Ambiciosa
TTITLE18=Preto Velho
TTITLE19=Mundo Velho
TTITLE20=Navalha Na Carne
TTITLE21=Veneno Da Mentira
TTITLE22=Nó Cego
TTITLE23=Cruz Pesada
EXTD=YEAR: 1995
EXTT0=
EXTT1=
EXTT2=
EXTT3=
EXTT4=
EXTT5=
EXTT6=
EXTT7=
EXTT8=
EXTT9=
EXTT10=
EXTT11=
EXTT12=
EXTT13=
EXTT14=
EXTT15=
EXTT16=
EXTT17=
EXTT18=
EXTT19=
EXTT20=
EXTT21=
EXTT22=
EXTT23=
PLAYORDER=
